PathFileType	4	(X/Y/Z)	RBDS019\RBDS019runT35.trc
DataRate	CameraRate	NumFrames	NumMarkers	Units	OrigDataRate	OrigDataStartFrame	OrigNumFrames
150.000000	150.000000	6	33	mm	150.000000	1125	4500
Frame#	Time	L.ASIS			L.Heel.Bottom			L.Heel.Lateral			L.Heel.Top			L.Iliac.Crest			L.MT1			L.MT5			L.PSIS			L.Shank.Bottom.Lateral			L.Shank.Bottom.Medial			L.Shank.Top.Lateral			L.Shank.Top.Medial			L.Thigh.Bottom.Lateral			L.Thigh.Bottom.Medial			L.Thigh.Top.Lateral			L.Thigh.Top.Medial			R.ASIS			R.ASY			R.Heel.Bottom			R.Heel.Lateral			R.Heel.Top			R.Iliac.Crest			R.MT1			R.MT5			R.PSIS			R.Shank.Bottom.Lateral			R.Shank.Bottom.Medial			R.Shank.Top.Lateral			R.Shank.Top.Medial			R.Thigh.Bottom.Lateral			R.Thigh.Bottom.Medial			R.Thigh.Top.Lateral			R.Thigh.Top.Medial			
		X1	Y1	Z1	X2	Y2	Z2	X3	Y3	Z3	X4	Y4	Z4	X5	Y5	Z5	X6	Y6	Z6	X7	Y7	Z7	X8	Y8	Z8	X9	Y9	Z9	X10	Y10	Z10	X11	Y11	Z11	X12	Y12	Z12	X13	Y13	Z13	X14	Y14	Z14	X15	Y15	Z15	X16	Y16	Z16	X17	Y17	Z17	X18	Y18	Z18	X19	Y19	Z19	X20	Y20	Z20	X21	Y21	Z21	X22	Y22	Z22	X23	Y23	Z23	X24	Y24	Z24	X25	Y25	Z25	X26	Y26	Z26	X27	Y27	Z27	X28	Y28	Z28	X29	Y29	Z29	X30	Y30	Z30	X31	Y31	Z31	X32	Y32	Z32	X33	Y33	Z33	

1126	7.500000000000001	2337.65628827104	960.1122661189897	987.7054791972334	2126.21607539864	289.6667082676006	1062.213679793022	2158.621148339994	287.3871870915864	1016.735992905892	2165.018777569558	318.2619874084971	1063.070887446801	2283.34008661195	1019.062962248238	941.483933416611	2286.207597773627	156.8463444268062	1076.025490066441	2254.311982908279	182.9807648430142	976.2982576627807	2168.817131190486	990.1889655623485	1033.547592219216	2274.590221765692	342.0488734390493	1000.457190807572	2245.025487199985	369.0653308000663	1032.36451022528	2320.990476644166	407.0940524638333	984.2234081517101	2294.803971231907	436.7835243969608	1019.276170614539	2447.709360098438	642.1717125995574	950.1315068952176	2397.430120640214	605.2936631756315	989.1742076345861	2373.930658143808	719.6536158649019	927.2153008898108	2325.031522544133	683.2902291147458	961.6805101967371	2320.977723110925	939.2907422393052	1215.808119621134	-1283703861.216385	848546222.3353242	-2387363220.465665	1795.839871934235	150.3510302399156	1138.737511625807	1826.587132681552	142.4315705421573	1178.384100034468	1829.816709222524	179.677963325938	1140.886870236225	2287.275526835066	1006.2502576474	1232.574440318542	1959.93366060457	51.23453521086282	1093.37466115433	1931.431351588149	48.46826430429809	1196.635573953895	2170.409177060842	998.4368426372201	1135.978633810893	1922.543427037858	220.7039139302684	1193.199902598858	1887.683744220383	244.3281279786968	1156.646243445769	1952.692630669382	294.7625680969323	1210.318154794074	1920.161142161823	316.058159100633	1172.552654383432	2126.616027998502	597.4722612153818	1233.539980651481	2078.804442188089	619.3345245404289	1185.550769349421	2156.375738549984	702.1106939169881	1251.829233360177	2107.517516699769	722.9711524249518	1208.28897339537	
1127	7.506666666666667	2339.061008443166	965.0850016714484	989.0916782209774	2147.563165222722	266.2163684581935	1062.432829779798	2179.763382692141	267.0031463912678	1016.715950775575	2183.947614084918	297.8503115333968	1063.386067602235	2284.232332803234	1025.094176780605	941.7548015517774	2317.872242899502	146.2601791641792	1074.106347771245	2283.401909817725	170.827245448474	974.9392558538851	2171.232431063679	996.0415786418761	1033.926895206453	2291.07283576462	330.8640662772824	1000.290188659886	2260.145094490576	355.2089395240306	1033.058377384642	2332.533399297869	399.3430752222714	984.5912501145194	2304.85707393654	426.5369950713351	1020.610145398952	2448.663351761197	648.0861755044061	951.129941444502	2398.002697395576	610.755537525879	988.9715707809767	2374.841416677113	725.3618036261386	927.4411188159409	2325.617238881451	688.5936821125251	960.7642574374695	2323.337578466467	941.3358115638848	1215.758382058427	-1289145007.115428	852142249.5763129	-2397481395.082448	1783.056813615962	165.1443589915105	1139.843901279613	1813.551579462447	155.2590783048181	1179.292669668524	1818.816199868447	192.3229631839563	1141.815361707125	2293.50763138696	1010.481536683413	1231.108291774047	1940.931953844736	55.25874360458415	1093.550177999059	1912.655348507324	54.00101424478789	1196.805739983531	2173.668274748718	1003.585960411647	1136.896983800623	1910.435107035142	229.4678422518492	1193.768735136564	1876.024390172013	253.0170336769195	1156.774563744031	1941.315011233179	303.4076887769861	1210.20414602359	1909.109040903774	324.6090476444885	1172.102788365027	2119.062527422439	605.0496623309255	1232.353713607852	2072.90368902566	628.4322983940268	1183.358631863561	2152.451018651332	708.740656853818	1250.648839267567	2105.077507074992	731.1884658606697	1206.044146826792	
1128	7.513333333333334	2340.345210204666	969.5230783866476	990.2396440301675	2170.334237450782	243.0601735523192	1062.065088824949	2202.234659822641	246.7185607933044	1016.243600066266	2204.041439550508	277.5413187215502	1063.124573183989	2284.945548590672	1030.736710475747	941.928290724523	2349.824928437086	137.0577832433723	1072.882630735889	2313.272444272828	159.3301512781738	974.0248007390741	2173.623175586345	1001.661146085939	1034.35033387092	2307.927999424941	319.6003475521039	999.8695447070032	2275.911473592892	341.2311805022712	1033.515591874108	2344.231864829682	391.0764882180208	984.732325516114	2315.341431122107	415.7178717190669	1021.753306102895	2449.018026191598	653.1138656037339	951.9612521974144	2397.713451868954	615.2736895887717	988.0597486765437	2375.492203143954	730.524048941733	927.6840327287939	2325.705534177802	693.3755897276606	959.4614054390347	2325.664226563943	943.3192659300294	1215.539138690559	-1294601506.642803	855748422.1973156	-2407628118.072284	1770.819684477788	180.4906870014116	1140.660939034009	1800.963056032466	168.7301388778101	1179.925638211039	1808.20125370149	205.5170511899474	1142.467081397588	2299.438153992332	1014.764595539091	1229.416636747838	1922.300771013546	60.64024894316422	1093.471751950224	1894.187602909497	60.73230419893193	1196.700151172717	2176.801507044514	1008.466190157884	1137.804483115313	1898.870040489699	238.5944286124145	1194.135325359037	1865.015621948569	262.2678436190706	1156.760947025298	1930.806145853447	312.2117421706632	1209.987090712601	1899.01037857713	333.5229390490082	1171.611474907333	2112.656773411814	612.1042440324936	1231.31291514637	2068.032810099524	636.6664567278141	1181.34881215215	2149.080577263	714.9535815863927	1249.482511628059	2103.081921167203	738.6402379010334	1203.864641096312	
1129	7.52	2341.47188264364	973.3924030155385	991.109489454371	2194.410601479817	220.3719812928021	1061.181677115689	2225.951143949288	226.7073945860714	1015.375757115309	2225.191273477875	257.4850452523876	1062.331149922833	2285.512652243567	1035.883357614329	942.0076390968278	2381.824377107665	129.326522712496	1072.409707130832	2343.794492314665	148.6310367739329	973.5971791973612	2175.919534148743	1006.986297150885	1034.83524368354	2325.074769744441	308.308593663228	999.2216900531101	2292.208953760229	327.223282310348	1033.713498436647	2356.028865001166	382.3202150619431	984.6007060794719	2326.161804229978	404.4006449592529	1022.597720486691	2448.79813727403	657.1904899831108	952.5320833134402	2396.614280371224	618.8255058756413	986.4184363063696	2375.918255853536	735.0863259537141	927.9058978791167	2325.352974910376	697.6135054983058	957.7983129444025	2327.920217307721	945.2497182312799	1215.153929190008	-1300073381.430154	859364754.4896904	-2417803429.652979	1758.96665210384	196.3358922704893	1141.062397008921	1788.646359667136	182.8010387012214	1180.169785998815	1797.788228921044	219.2470510104119	1142.75034965847	2304.897127140911	1018.966840832499	1227.614919500404	1904.03051567546	67.47736557991706	1093.038941989382	1875.970126043401	68.71517326268479	1196.210594615835	2179.732519300531	1013.028219624963	1138.71244156143	1887.710345010815	248.1349968972275	1194.228082594678	1854.546881890657	272.1678917585934	1156.540299029454	1921.057439423769	321.1873943884656	1209.635353994154	1889.789966828311	342.8469271499337	1171.048336399958	2107.548038950832	618.4384552451411	1230.439756711504	2064.242685096534	643.8490554336628	1179.61881669879	2146.366775208095	720.5886271180259	1248.385332116645	2101.540762904897	745.173756828881	1201.888216868425	
1130	7.526666666666667	2342.414293655007	976.6845773344317	991.6867641346186	2219.633586653363	198.349174106385	1059.894686765228	2250.774846258871	207.1752724497879	1014.203627311458	2247.251953991892	237.8525989759639	1061.090288641387	2285.970116165126	1040.439483308801	941.9963090616607	2413.596262413005	123.1451819211376	1072.690545734536	2374.770297024561	138.9002873667977	973.6702963663963	2178.059411187638	1011.957407244387	1035.383619742799	2342.420698908803	297.0715955933185	998.3876417674309	2308.899409840518	313.2972074820707	1033.642852536413	2367.858995170955	373.1366262030168	984.1642761706445	2337.200490948039	392.6846894129254	1023.047892907629	2448.017320150105	660.2576614077395	952.7594178280264	2394.758583618888	621.4223036490849	984.0959598092657	2376.139470319293	738.9868620592634	928.0524691179745	2324.611865646638	701.2943928856108	955.8268066227695	2330.073640632791	947.1442295501338	1214.618336972918	-1305560653.109125	862991260.7447964	-2428007370.042344	1747.380648200526	212.6409777508217	1140.93795317234	1776.469385895535	197.4368639860986	1179.926076386306	1787.449757225438	233.5044641831562	1142.586827831705	2309.732849876251	1022.963046253774	1225.825315991856	1886.135930132445	75.80959055015462	1092.173021760558	1857.968183300073	77.96627961992756	1195.251996644799	2182.399482856645	1017.234137602585	1139.616579657963	1876.852086765452	258.1372684652831	1193.990788616754	1844.536058029256	282.783663537904	1156.058598916767	1911.966950276569	330.3545030353325	1209.127471872355	1881.375771909671	352.6177221485373	1170.38992001149	2103.843404578462	623.8901633964857	1229.751737977854	2061.560990660442	649.8485857010098	1178.252587926898	2144.41049904425	725.5067059297688	1247.419025725572	2100.478950284643	750.6802865340253	1200.247814302065	
1131	7.533333333333334	2343.156289844485	979.4140306091105	991.982770800648	2245.791642747549	177.2079488692724	1058.342736947053	2276.500539424615	188.3506417785551	1012.840591774493	2270.031841782024	218.8332120815968	1059.514193303166	2286.352291226132	1044.328788678914	941.8989213388843	2444.831460275062	118.5769630775592	1073.675880343372	2405.924960104187	130.3201673225124	974.2275890298714	2179.991457194652	1016.515285762286	1035.984937538392	2359.854250204802	286.0048992621798	997.4163002239246	2325.818344278755	299.5867112821135	1033.302983352379	2379.645225684915	363.6277615438268	983.4071841406095	2348.318599760066	380.6965138452113	1023.026833856654	2446.677379677115	662.2669632367623	952.5811340425429	2392.198151058723	623.1030173081715	981.2081581091589	2376.155357237675	742.1575538785162	928.0608242694626	2323.523746468718	704.4086247276464	953.622623133761	2332.100777996739	949.0192586636653	1213.958102851734	-1311063343.311359	866627955.2539921	-2438239979.458186	1736.011575801022	229.3846886334942	1140.203370163598	1764.366066886016	212.616120421288	1179.119256308446	1777.136545711954	248.2846468667553	1141.918675243911	2313.825608490399	1026.64888893994	1224.161037843092	1868.660233809194	85.61476956788067	1090.830102226351	1840.17808696025	88.47012520057268	1193.774546980352	2184.757819318618	1021.053839153424	1140.500501842238	1866.2422390712	268.6371305388789	1193.387694978101	1834.944676159259	294.1493424792837	1155.277463411966	1903.456710171019	339.7337428235809	1208.452145233796	1873.712922546191	362.8521886849103	1169.620020446817	2101.596100254505	628.3418925846748	1229.258535607784	2059.987632734678	654.5942395425517	1177.311066454109	2143.296186308345	729.5990463887323	1246.643962663476	2099.929556534943	755.0980374363202	1199.055605365757	
